<svg xmlns="http://www.w3.org/2000/svg" viewBox="0 0 900 900"><defs><style>.cls-1{fill:#f39200;}.cls-2{fill:#fff;}</style></defs><title>credit</title><g id="Livello_1" data-name="Livello 1"><circle class="cls-1" cx="450" cy="450" r="425"/></g><g id="Livello_2" data-name="Livello 2"><path class="cls-2" d="M111.67,396.87H788.8v13.07q0,101.28,0,202.57c0,29.48-15,46.25-43.26,48.47-3.46.27-6.95.17-10.42.17q-285.08,0-570.15-.21c-9.81,0-20.19-1.57-29.28-5.21-16.09-6.44-24.7-19.11-24.61-38.3.36-70.36.14-140.71.16-211.07C111.23,403.59,111.48,400.82,111.67,396.87ZM279.9,578.23c0-19.91.34-38.8-.42-57.65-.1-2.37-6-6.32-9.24-6.42-19.24-.62-38.51-.31-57.77-.31H167v64.38Zm130.21-62.72h-112v62.64h112Z"/><path class="cls-2" d="M111.48,330.48c0-19.36-.79-37.94.22-56.41,1-18.06,19.44-32.79,41.72-35,3.83-.38,7.72-.24,11.58-.24q285.06,0,570.11.21a80.11,80.11,0,0,1,29.27,5.25c16.08,6.47,25.14,19.13,24.52,38.34-.51,15.67-.11,31.38-.11,47.82Z"/></g></svg>