<svg id="Layer_1" data-name="Layer 1" xmlns="http://www.w3.org/2000/svg" viewBox="0 0 900 900"><defs><style>.cls-1{fill:#39b54a;}.cls-2{fill:#fff;}</style></defs><title>green</title><circle class="cls-1" cx="450" cy="450" r="425"/><path class="cls-2" d="M237.5,338.4s0-73.58,62.41-98.73a23,23,0,0,1,2.91-1A33.72,33.72,0,0,1,314,237.52c5.9.37,17.93,1.31,23.16,3.17l1.83.61c2.85.9,11.84,5,17.27,22.12l26.08,75s7.67,20.31-5.41,31.16a15.81,15.81,0,0,0-1.22,1.09L351.33,395a22.43,22.43,0,0,0-6,10.54c-.78,3.27-.85,7.05,1.21,10.36a23.15,23.15,0,0,1,1.67,3.1c5.53,12.5,40.28,83.68,134.72,134.08,0,0,10.24,6,21.89-4.66l19-18.6a21.93,21.93,0,0,0,2.25-2.56c3-4,14.77-17.11,34.6-9.58l79.17,27,1.8.6c2.55.8,16.48,5.92,19,22.33.19,1.26.36,2.52.56,3.78.83,5.19,2.65,19.28-.35,28.26,0,0-19.09,60.55-102.92,62.87,0,0-54.82.46-113.52-39.75q-2.4-1.63-4.87-3.13c-17-10.3-120-75.73-174.55-184.85C265,434.81,237.5,385.44,237.5,338.4Z"/></svg>