<svg id="Layer_1" data-name="Layer 1" xmlns="http://www.w3.org/2000/svg" viewBox="0 0 900 900"><defs><style>.cls-1{fill:red;}.cls-2{fill:#fff;}</style></defs><title>red</title><circle class="cls-1" cx="450" cy="450" r="425"/><path class="cls-2" d="M679.21,413.39s52,52,25.68,113.94a24.06,24.06,0,0,1-1.35,2.76,33.89,33.89,0,0,1-7.09,8.72c-4.43,3.91-13.61,11.75-18.62,14.14l-1.72.86c-2.66,1.38-11.94,4.81-27.86-3.43L576.79,515.8s-19.78-8.93-18.2-25.86c0-.54.09-1.08.09-1.63V453.84a22.3,22.3,0,0,0-3.21-11.68c-1.77-2.87-4.39-5.6-8.19-6.47a26.13,26.13,0,0,1-3.37-1c-12.74-4.93-87.66-30.7-190.07.44,0,0-11.52,3-12.18,18.77l-.31,26.61a22.67,22.67,0,0,0,.22,3.4c.71,5,1.66,22.55-17.7,31.25L248.81,552c-.57.28-1.14.56-1.7.86-2.37,1.23-15.84,7.46-29.19-2.4-1-.75-2-1.52-3.07-2.27-4.25-3.08-15.5-11.76-19.74-20.23,0,0-29.31-56.31,28.32-117.24,0,0,38.45-39.08,108.39-52.16,1.89-.35,3.78-.76,5.65-1.22,19.34-4.78,138.39-31.3,254.14,7.28C591.61,364.65,646,380.13,679.21,413.39Z"/></svg>