<svg xmlns="http://www.w3.org/2000/svg" viewBox="0 0 900 900"><defs><style>.cls-1{fill:#009fe3;}.cls-2{fill:#fff;}</style></defs><title>users</title><g id="Livello_1" data-name="Livello 1"><circle class="cls-1" cx="450" cy="450" r="425"/></g><g id="Livello_2" data-name="Livello 2"><path class="cls-2" d="M546.24,495.43c30.48,24.56,51.58,55,66.35,90.07,14.16,33.63,20.83,68.8,21.85,105.18.12,4.39-1.15,6.32-5.53,7.6-35.53,10.39-71.65,18.07-108.51,21.06-30.23,2.46-60.64,4.27-90.94,4a579.56,579.56,0,0,1-160.38-24.64c-3.41-1-6.67-1.54-6.52-6.88,1.85-70.18,23-132.58,73.29-183.33,4.47-4.51,9.44-8.52,14.62-13.16C376.73,525,409,541.25,448.54,541.19,487.87,541.14,520,525.08,546.24,495.43Z"/><path class="cls-2" d="M705.77,359.62c29.41,23.72,50.25,53,64.92,86.86a279.77,279.77,0,0,1,23,108.34c.06,4.31-1,6.33-5.49,7.63a615,615,0,0,1-108.52,21.21c-11.34,1.18-22.76,1.67-34.08,3-5,.59-7.05-1-8.88-5.65-14.19-36.4-33.94-69.52-63.32-95.56-10.59-9.39-13.71-16.29-7.18-29.61,7.26-14.82,8.06-31.68,6.95-48.29-.13-2,0-4,0-6.49C625.4,413.13,669.45,399.56,705.77,359.62Z"/><path class="cls-2" d="M192.84,359.4c35.8,39.18,79.18,53,129.72,41.93,1,12.23,1,24.34,3.17,36.05,1.91,10.41,6,20.46,9.5,30.52,1.19,3.37,1.71,5.37-1.56,8.08-34,28.23-57.39,64-73.47,104.83-1.66,4.22-3.39,6-8.21,5.7-48.42-3-96.05-10.43-142.42-25-1.91-.6-4.49-3.47-4.45-5.23C106.69,481,130.24,415,187.55,363.44,189.06,362.09,190.77,361,192.84,359.4Z"/><path class="cls-2" d="M551.23,415.07A102.54,102.54,0,0,1,448.41,517.79c-56.76,0-103.14-46.21-103.08-102.72S391.89,312.13,448.4,312.16A102.9,102.9,0,0,1,551.23,415.07Z"/><path class="cls-2" d="M607.62,382.37c-6.34-.7-12.71-1.22-19-2.16-13.34-2-23.21-6.82-29-21.3-8.17-20.49-23.6-36.45-42.54-47.94-7.65-4.64-10.47-10.36-11.43-18.47-7.61-63.76,42.5-118.39,106.65-116.14,50.43,1.77,92.73,41.65,97.76,92.15A103.11,103.11,0,0,1,607.62,382.37Z"/><path class="cls-2" d="M393.48,278.86c-.2,4.11-.34,8.22-.62,12.33-.56,8.25-3.15,14.36-11.27,19.22C359,324,343.46,344,333,368.18a14.18,14.18,0,0,1-7.25,6.94c-62.56,23.35-130.65-19.23-137.33-85.67-5.67-56.33,32.87-105.62,90-112.66,59-7.27,105.21,34.85,113.23,83.7,1,6.06,1.43,12.22,2.13,18.33Z"/></g></svg>